<svg width="214" height="106" viewBox="0 0 214 106" fill="none" xmlns="http://www.w3.org/2000/svg">
<g filter="url(#filter0_d_1_67)">
<rect x="30.0133" y="15" width="153.987" height="46" fill="#2A9D8F"/>
<path d="M59.3 37.84C60.0867 37.9867 60.7333 38.38 61.24 39.02C61.7467 39.66 62 40.3933 62 41.22C62 41.9667 61.8133 42.6267 61.44 43.2C61.08 43.76 60.5533 44.2 59.86 44.52C59.1667 44.84 58.3467 45 57.4 45H51.38V31.04H57.14C58.0867 31.04 58.9 31.1933 59.58 31.5C60.2733 31.8067 60.7933 32.2333 61.14 32.78C61.5 33.3267 61.68 33.9467 61.68 34.64C61.68 35.4533 61.46 36.1333 61.02 36.68C60.5933 37.2267 60.02 37.6133 59.3 37.84ZM54.18 36.8H56.74C57.4067 36.8 57.92 36.6533 58.28 36.36C58.64 36.0533 58.82 35.62 58.82 35.06C58.82 34.5 58.64 34.0667 58.28 33.76C57.92 33.4533 57.4067 33.3 56.74 33.3H54.18V36.8ZM57 42.72C57.68 42.72 58.2067 42.56 58.58 42.24C58.9667 41.92 59.16 41.4667 59.16 40.88C59.16 40.28 58.96 39.8133 58.56 39.48C58.16 39.1333 57.62 38.96 56.94 38.96H54.18V42.72H57ZM74.6316 39.22C74.6316 39.62 74.6049 39.98 74.5516 40.3H66.4516C66.5182 41.1 66.7982 41.7267 67.2916 42.18C67.7849 42.6333 68.3916 42.86 69.1116 42.86C70.1516 42.86 70.8916 42.4133 71.3316 41.52H74.3516C74.0316 42.5867 73.4182 43.4667 72.5116 44.16C71.6049 44.84 70.4916 45.18 69.1716 45.18C68.1049 45.18 67.1449 44.9467 66.2916 44.48C65.4516 44 64.7916 43.3267 64.3116 42.46C63.8449 41.5933 63.6116 40.5933 63.6116 39.46C63.6116 38.3133 63.8449 37.3067 64.3116 36.44C64.7782 35.5733 65.4316 34.9067 66.2716 34.44C67.1116 33.9733 68.0782 33.74 69.1716 33.74C70.2249 33.74 71.1649 33.9667 71.9916 34.42C72.8316 34.8733 73.4782 35.52 73.9316 36.36C74.3982 37.1867 74.6316 38.14 74.6316 39.22ZM71.7316 38.42C71.7182 37.7 71.4582 37.1267 70.9516 36.7C70.4449 36.26 69.8249 36.04 69.0916 36.04C68.3982 36.04 67.8116 36.2533 67.3316 36.68C66.8649 37.0933 66.5782 37.6733 66.4716 38.42H71.7316ZM79.5753 35.64C79.9353 35.0533 80.402 34.5933 80.9753 34.26C81.562 33.9267 82.2286 33.76 82.9753 33.76V36.7H82.2353C81.3553 36.7 80.6886 36.9067 80.2353 37.32C79.7953 37.7333 79.5753 38.4533 79.5753 39.48V45H76.7753V33.92H79.5753V35.64ZM89.3012 33.74C90.1279 33.74 90.8546 33.9067 91.4812 34.24C92.1079 34.56 92.6012 34.98 92.9612 35.5V33.92H95.7812V45.08C95.7812 46.1067 95.5746 47.02 95.1613 47.82C94.7479 48.6333 94.1279 49.2733 93.3012 49.74C92.4746 50.22 91.4746 50.46 90.3012 50.46C88.7279 50.46 87.4346 50.0933 86.4212 49.36C85.4212 48.6267 84.8546 47.6267 84.7212 46.36H87.5012C87.6479 46.8667 87.9612 47.2667 88.4412 47.56C88.9346 47.8667 89.5279 48.02 90.2212 48.02C91.0346 48.02 91.6946 47.7733 92.2012 47.28C92.7079 46.8 92.9612 46.0667 92.9612 45.08V43.36C92.6012 43.88 92.1012 44.3133 91.4612 44.66C90.8346 45.0067 90.1146 45.18 89.3012 45.18C88.3679 45.18 87.5146 44.94 86.7412 44.46C85.9679 43.98 85.3546 43.3067 84.9012 42.44C84.4612 41.56 84.2412 40.5533 84.2412 39.42C84.2412 38.3 84.4612 37.3067 84.9012 36.44C85.3546 35.5733 85.9612 34.9067 86.7212 34.44C87.4946 33.9733 88.3546 33.74 89.3012 33.74ZM92.9612 39.46C92.9612 38.78 92.8279 38.2 92.5612 37.72C92.2946 37.2267 91.9346 36.8533 91.4812 36.6C91.0279 36.3333 90.5412 36.2 90.0212 36.2C89.5012 36.2 89.0212 36.3267 88.5812 36.58C88.1412 36.8333 87.7812 37.2067 87.5012 37.7C87.2346 38.18 87.1012 38.7533 87.1012 39.42C87.1012 40.0867 87.2346 40.6733 87.5012 41.18C87.7812 41.6733 88.1412 42.0533 88.5812 42.32C89.0346 42.5867 89.5146 42.72 90.0212 42.72C90.5412 42.72 91.0279 42.5933 91.4812 42.34C91.9346 42.0733 92.2946 41.7 92.5612 41.22C92.8279 40.7267 92.9612 40.14 92.9612 39.46ZM97.8959 39.42C97.8959 38.3 98.1159 37.3067 98.5559 36.44C99.0093 35.5733 99.6159 34.9067 100.376 34.44C101.149 33.9733 102.009 33.74 102.956 33.74C103.783 33.74 104.503 33.9067 105.116 34.24C105.743 34.5733 106.243 34.9933 106.616 35.5V33.92H109.436V45H106.616V43.38C106.256 43.9 105.756 44.3333 105.116 44.68C104.489 45.0133 103.763 45.18 102.936 45.18C102.003 45.18 101.149 44.94 100.376 44.46C99.6159 43.98 99.0093 43.3067 98.5559 42.44C98.1159 41.56 97.8959 40.5533 97.8959 39.42ZM106.616 39.46C106.616 38.78 106.483 38.2 106.216 37.72C105.949 37.2267 105.589 36.8533 105.136 36.6C104.683 36.3333 104.196 36.2 103.676 36.2C103.156 36.2 102.676 36.3267 102.236 36.58C101.796 36.8333 101.436 37.2067 101.156 37.7C100.889 38.18 100.756 38.7533 100.756 39.42C100.756 40.0867 100.889 40.6733 101.156 41.18C101.436 41.6733 101.796 42.0533 102.236 42.32C102.689 42.5867 103.169 42.72 103.676 42.72C104.196 42.72 104.683 42.5933 105.136 42.34C105.589 42.0733 105.949 41.7 106.216 41.22C106.483 40.7267 106.616 40.14 106.616 39.46ZM115.071 35.54C115.431 35.0067 115.924 34.5733 116.551 34.24C117.191 33.9067 117.917 33.74 118.731 33.74C119.677 33.74 120.531 33.9733 121.291 34.44C122.064 34.9067 122.671 35.5733 123.111 36.44C123.564 37.2933 123.791 38.2867 123.791 39.42C123.791 40.5533 123.564 41.56 123.111 42.44C122.671 43.3067 122.064 43.98 121.291 44.46C120.531 44.94 119.677 45.18 118.731 45.18C117.904 45.18 117.177 45.02 116.551 44.7C115.937 44.3667 115.444 43.94 115.071 43.42V45H112.271V30.2H115.071V35.54ZM120.931 39.42C120.931 38.7533 120.791 38.18 120.511 37.7C120.244 37.2067 119.884 36.8333 119.431 36.58C118.991 36.3267 118.511 36.2 117.991 36.2C117.484 36.2 117.004 36.3333 116.551 36.6C116.111 36.8533 115.751 37.2267 115.471 37.72C115.204 38.2133 115.071 38.7933 115.071 39.46C115.071 40.1267 115.204 40.7067 115.471 41.2C115.751 41.6933 116.111 42.0733 116.551 42.34C117.004 42.5933 117.484 42.72 117.991 42.72C118.511 42.72 118.991 42.5867 119.431 42.32C119.884 42.0533 120.244 41.6733 120.511 41.18C120.791 40.6867 120.931 40.1 120.931 39.42ZM136.385 33.92V45H133.565V43.6C133.205 44.08 132.732 44.46 132.145 44.74C131.572 45.0067 130.945 45.14 130.265 45.14C129.399 45.14 128.632 44.96 127.965 44.6C127.299 44.2267 126.772 43.6867 126.385 42.98C126.012 42.26 125.825 41.4067 125.825 40.42V33.92H128.625V40.02C128.625 40.9 128.845 41.58 129.285 42.06C129.725 42.5267 130.325 42.76 131.085 42.76C131.859 42.76 132.465 42.5267 132.905 42.06C133.345 41.58 133.565 40.9 133.565 40.02V33.92H136.385ZM145.388 33.76C146.708 33.76 147.775 34.18 148.588 35.02C149.401 35.8467 149.808 37.0067 149.808 38.5V45H147.008V38.88C147.008 38 146.788 37.3267 146.348 36.86C145.908 36.38 145.308 36.14 144.548 36.14C143.775 36.14 143.161 36.38 142.708 36.86C142.268 37.3267 142.048 38 142.048 38.88V45H139.248V33.92H142.048V35.3C142.421 34.82 142.895 34.4467 143.468 34.18C144.055 33.9 144.695 33.76 145.388 33.76ZM156.911 33.74C157.737 33.74 158.464 33.9067 159.091 34.24C159.717 34.56 160.211 34.98 160.571 35.5V33.92H163.391V45.08C163.391 46.1067 163.184 47.02 162.771 47.82C162.357 48.6333 161.737 49.2733 160.911 49.74C160.084 50.22 159.084 50.46 157.911 50.46C156.337 50.46 155.044 50.0933 154.031 49.36C153.031 48.6267 152.464 47.6267 152.331 46.36H155.111C155.257 46.8667 155.571 47.2667 156.051 47.56C156.544 47.8667 157.137 48.02 157.831 48.02C158.644 48.02 159.304 47.7733 159.811 47.28C160.317 46.8 160.571 46.0667 160.571 45.08V43.36C160.211 43.88 159.711 44.3133 159.071 44.66C158.444 45.0067 157.724 45.18 156.911 45.18C155.977 45.18 155.124 44.94 154.351 44.46C153.577 43.98 152.964 43.3067 152.511 42.44C152.071 41.56 151.851 40.5533 151.851 39.42C151.851 38.3 152.071 37.3067 152.511 36.44C152.964 35.5733 153.571 34.9067 154.331 34.44C155.104 33.9733 155.964 33.74 156.911 33.74ZM160.571 39.46C160.571 38.78 160.437 38.2 160.171 37.72C159.904 37.2267 159.544 36.8533 159.091 36.6C158.637 36.3333 158.151 36.2 157.631 36.2C157.111 36.2 156.631 36.3267 156.191 36.58C155.751 36.8333 155.391 37.2067 155.111 37.7C154.844 38.18 154.711 38.7533 154.711 39.42C154.711 40.0867 154.844 40.6733 155.111 41.18C155.391 41.6733 155.751 42.0533 156.191 42.32C156.644 42.5867 157.124 42.72 157.631 42.72C158.151 42.72 158.637 42.5933 159.091 42.34C159.544 42.0733 159.904 41.7 160.171 41.22C160.437 40.7267 160.571 40.14 160.571 39.46Z" fill="white"/>
</g>
<defs>
<filter id="filter0_d_1_67" x="0.0133057" y="0" width="213.987" height="106" filterUnits="userSpaceOnUse" color-interpolation-filters="sRGB">
<feFlood flood-opacity="0" result="BackgroundImageFix"/>
<feColorMatrix in="SourceAlpha" type="matrix" values="0 0 0 0 0 0 0 0 0 0 0 0 0 0 0 0 0 0 127 0" result="hardAlpha"/>
<feOffset dy="15"/>
<feGaussianBlur stdDeviation="15"/>
<feComposite in2="hardAlpha" operator="out"/>
<feColorMatrix type="matrix" values="0 0 0 0 0.470588 0 0 0 0 0.792157 0 0 0 0 0.576471 0 0 0 0.3 0"/>
<feBlend mode="normal" in2="BackgroundImageFix" result="effect1_dropShadow_1_67"/>
<feBlend mode="normal" in="SourceGraphic" in2="effect1_dropShadow_1_67" result="shape"/>
</filter>
</defs>
</svg>
