<svg width="137" height="32" viewBox="0 0 137 32" fill="none" xmlns="http://www.w3.org/2000/svg">
<rect width="136.471" height="32" fill="#2A9D8F"/>
<path d="M39.3505 21L35.3325 16.548V21H34.0585V11.242H35.3325V15.764L39.3645 11.242H40.9745L36.5505 16.128L41.0165 21H39.3505ZM49.4393 16.87C49.4393 17.1127 49.4253 17.3693 49.3973 17.64H43.2653C43.312 18.396 43.5687 18.9887 44.0353 19.418C44.5113 19.838 45.0853 20.048 45.7573 20.048C46.308 20.048 46.7653 19.922 47.1293 19.67C47.5027 19.4087 47.764 19.0633 47.9133 18.634H49.2853C49.08 19.3713 48.6693 19.9733 48.0533 20.44C47.4373 20.8973 46.672 21.126 45.7573 21.126C45.0293 21.126 44.376 20.9627 43.7973 20.636C43.228 20.3093 42.78 19.8473 42.4533 19.25C42.1267 18.6433 41.9633 17.9433 41.9633 17.15C41.9633 16.3567 42.122 15.6613 42.4393 15.064C42.7567 14.4667 43.2 14.0093 43.7693 13.692C44.348 13.3653 45.0107 13.202 45.7573 13.202C46.4853 13.202 47.1293 13.3607 47.6893 13.678C48.2493 13.9953 48.6787 14.434 48.9773 14.994C49.2853 15.5447 49.4393 16.17 49.4393 16.87ZM48.1233 16.604C48.1233 16.1187 48.016 15.7033 47.8013 15.358C47.5867 15.0033 47.2927 14.7373 46.9193 14.56C46.5553 14.3733 46.1493 14.28 45.7013 14.28C45.0573 14.28 44.5067 14.4853 44.0493 14.896C43.6013 15.3067 43.3447 15.876 43.2793 16.604H48.1233ZM54.285 13.202C54.9476 13.202 55.5263 13.3467 56.021 13.636C56.525 13.9253 56.8983 14.2893 57.141 14.728V13.328H58.429V21.168C58.429 21.868 58.2796 22.4887 57.981 23.03C57.6823 23.5807 57.253 24.01 56.693 24.318C56.1423 24.626 55.4983 24.78 54.761 24.78C53.753 24.78 52.913 24.542 52.241 24.066C51.569 23.59 51.1723 22.9413 51.051 22.12H52.311C52.451 22.5867 52.7403 22.96 53.179 23.24C53.6176 23.5293 54.145 23.674 54.761 23.674C55.461 23.674 56.0303 23.4547 56.469 23.016C56.917 22.5773 57.141 21.9613 57.141 21.168V19.558C56.889 20.006 56.5156 20.3793 56.021 20.678C55.5263 20.9767 54.9476 21.126 54.285 21.126C53.6036 21.126 52.983 20.958 52.423 20.622C51.8723 20.286 51.4383 19.8147 51.121 19.208C50.8036 18.6013 50.645 17.9107 50.645 17.136C50.645 16.352 50.8036 15.666 51.121 15.078C51.4383 14.4807 51.8723 14.0187 52.423 13.692C52.983 13.3653 53.6036 13.202 54.285 13.202ZM57.141 17.15C57.141 16.5713 57.0243 16.0673 56.791 15.638C56.5576 15.2087 56.2403 14.882 55.839 14.658C55.447 14.4247 55.013 14.308 54.537 14.308C54.061 14.308 53.627 14.42 53.235 14.644C52.843 14.868 52.5303 15.1947 52.297 15.624C52.0636 16.0533 51.947 16.5573 51.947 17.136C51.947 17.724 52.0636 18.2373 52.297 18.676C52.5303 19.1053 52.843 19.4367 53.235 19.67C53.627 19.894 54.061 20.006 54.537 20.006C55.013 20.006 55.447 19.894 55.839 19.67C56.2403 19.4367 56.5576 19.1053 56.791 18.676C57.0243 18.2373 57.141 17.7287 57.141 17.15ZM61.2399 12.082C60.9972 12.082 60.7919 11.998 60.6239 11.83C60.4559 11.662 60.3719 11.4567 60.3719 11.214C60.3719 10.9713 60.4559 10.766 60.6239 10.598C60.7919 10.43 60.9972 10.346 61.2399 10.346C61.4732 10.346 61.6692 10.43 61.8279 10.598C61.9959 10.766 62.0799 10.9713 62.0799 11.214C62.0799 11.4567 61.9959 11.662 61.8279 11.83C61.6692 11.998 61.4732 12.082 61.2399 12.082ZM61.8559 13.328V21H60.5819V13.328H61.8559ZM63.5512 17.136C63.5512 16.352 63.7099 15.666 64.0272 15.078C64.3446 14.4807 64.7786 14.0187 65.3292 13.692C65.8892 13.3653 66.5099 13.202 67.1912 13.202C67.8632 13.202 68.4466 13.3467 68.9412 13.636C69.4359 13.9253 69.8046 14.2893 70.0472 14.728V13.328H71.3352V21H70.0472V19.572C69.7952 20.02 69.4172 20.3933 68.9132 20.692C68.4186 20.9813 67.8399 21.126 67.1772 21.126C66.4959 21.126 65.8799 20.958 65.3292 20.622C64.7786 20.286 64.3446 19.8147 64.0272 19.208C63.7099 18.6013 63.5512 17.9107 63.5512 17.136ZM70.0472 17.15C70.0472 16.5713 69.9306 16.0673 69.6972 15.638C69.4639 15.2087 69.1466 14.882 68.7452 14.658C68.3532 14.4247 67.9192 14.308 67.4432 14.308C66.9672 14.308 66.5332 14.42 66.1412 14.644C65.7492 14.868 65.4366 15.1947 65.2032 15.624C64.9699 16.0533 64.8532 16.5573 64.8532 17.136C64.8532 17.724 64.9699 18.2373 65.2032 18.676C65.4366 19.1053 65.7492 19.4367 66.1412 19.67C66.5332 19.894 66.9672 20.006 67.4432 20.006C67.9192 20.006 68.3532 19.894 68.7452 19.67C69.1466 19.4367 69.4639 19.1053 69.6972 18.676C69.9306 18.2373 70.0472 17.7287 70.0472 17.15ZM75.0422 14.378V18.9C75.0422 19.2733 75.1215 19.5393 75.2802 19.698C75.4388 19.8473 75.7142 19.922 76.1062 19.922H77.0442V21H75.8962C75.1868 21 74.6548 20.8367 74.3002 20.51C73.9455 20.1833 73.7682 19.6467 73.7682 18.9V14.378H72.7742V13.328H73.7682V11.396H75.0422V13.328H77.0442V14.378H75.0422ZM78.1118 17.136C78.1118 16.352 78.2704 15.666 78.5878 15.078C78.9051 14.4807 79.3391 14.0187 79.8898 13.692C80.4498 13.3653 81.0704 13.202 81.7518 13.202C82.4238 13.202 83.0071 13.3467 83.5018 13.636C83.9964 13.9253 84.3651 14.2893 84.6078 14.728V13.328H85.8958V21H84.6078V19.572C84.3558 20.02 83.9778 20.3933 83.4738 20.692C82.9791 20.9813 82.4004 21.126 81.7378 21.126C81.0564 21.126 80.4404 20.958 79.8898 20.622C79.3391 20.286 78.9051 19.8147 78.5878 19.208C78.2704 18.6013 78.1118 17.9107 78.1118 17.136ZM84.6078 17.15C84.6078 16.5713 84.4911 16.0673 84.2578 15.638C84.0244 15.2087 83.7071 14.882 83.3058 14.658C82.9138 14.4247 82.4798 14.308 82.0038 14.308C81.5278 14.308 81.0938 14.42 80.7018 14.644C80.3098 14.868 79.9971 15.1947 79.7638 15.624C79.5304 16.0533 79.4138 16.5573 79.4138 17.136C79.4138 17.724 79.5304 18.2373 79.7638 18.676C79.9971 19.1053 80.3098 19.4367 80.7018 19.67C81.0938 19.894 81.5278 20.006 82.0038 20.006C82.4798 20.006 82.9138 19.894 83.3058 19.67C83.7071 19.4367 84.0244 19.1053 84.2578 18.676C84.4911 18.2373 84.6078 17.7287 84.6078 17.15ZM91.7867 13.188C92.72 13.188 93.476 13.4727 94.0547 14.042C94.6334 14.602 94.9227 15.414 94.9227 16.478V21H93.6627V16.66C93.6627 15.8947 93.4714 15.3113 93.0887 14.91C92.706 14.4993 92.1834 14.294 91.5207 14.294C90.8487 14.294 90.312 14.504 89.9107 14.924C89.5187 15.344 89.3227 15.9553 89.3227 16.758V21H88.0487V13.328H89.3227V14.42C89.5747 14.028 89.9154 13.7247 90.3447 13.51C90.7834 13.2953 91.264 13.188 91.7867 13.188Z" fill="white" fill-opacity="0.85"/>
</svg>
