<svg width="137" height="32" viewBox="0 0 137 32" fill="none" xmlns="http://www.w3.org/2000/svg">
<rect width="136.471" height="32" fill="#2A9D8F"/>
<path d="M33.6156 11.242V21H32.3416V16.576H27.3716V21H26.0976V11.242H27.3716V15.526H32.3416V11.242H33.6156ZM42.5949 13.328V21H41.3209V19.866C41.0783 20.258 40.7376 20.566 40.2989 20.79C39.8696 21.0047 39.3936 21.112 38.8709 21.112C38.2736 21.112 37.7369 20.9907 37.2609 20.748C36.7849 20.496 36.4069 20.1227 36.1269 19.628C35.8563 19.1333 35.7209 18.5313 35.7209 17.822V13.328H36.9809V17.654C36.9809 18.41 37.1723 18.9933 37.5549 19.404C37.9376 19.8053 38.4603 20.006 39.1229 20.006C39.8043 20.006 40.3409 19.796 40.7329 19.376C41.1249 18.956 41.3209 18.3447 41.3209 17.542V13.328H42.5949ZM46.3 14.378V18.9C46.3 19.2733 46.3793 19.5393 46.538 19.698C46.6967 19.8473 46.972 19.922 47.364 19.922H48.302V21H47.154C46.4447 21 45.9127 20.8367 45.558 20.51C45.2033 20.1833 45.026 19.6467 45.026 18.9V14.378H44.032V13.328H45.026V11.396H46.3V13.328H48.302V14.378H46.3ZM49.3696 17.136C49.3696 16.352 49.5283 15.666 49.8456 15.078C50.163 14.4807 50.597 14.0187 51.1476 13.692C51.7076 13.3653 52.3283 13.202 53.0096 13.202C53.6816 13.202 54.265 13.3467 54.7596 13.636C55.2543 13.9253 55.623 14.2893 55.8656 14.728V13.328H57.1536V21H55.8656V19.572C55.6136 20.02 55.2356 20.3933 54.7316 20.692C54.237 20.9813 53.6583 21.126 52.9956 21.126C52.3143 21.126 51.6983 20.958 51.1476 20.622C50.597 20.286 50.163 19.8147 49.8456 19.208C49.5283 18.6013 49.3696 17.9107 49.3696 17.136ZM55.8656 17.15C55.8656 16.5713 55.749 16.0673 55.5156 15.638C55.2823 15.2087 54.965 14.882 54.5636 14.658C54.1716 14.4247 53.7376 14.308 53.2616 14.308C52.7856 14.308 52.3516 14.42 51.9596 14.644C51.5676 14.868 51.255 15.1947 51.0216 15.624C50.7883 16.0533 50.6716 16.5573 50.6716 17.136C50.6716 17.724 50.7883 18.2373 51.0216 18.676C51.255 19.1053 51.5676 19.4367 51.9596 19.67C52.3516 19.894 52.7856 20.006 53.2616 20.006C53.7376 20.006 54.1716 19.894 54.5636 19.67C54.965 19.4367 55.2823 19.1053 55.5156 18.676C55.749 18.2373 55.8656 17.7287 55.8656 17.15ZM63.0446 13.188C63.9779 13.188 64.7339 13.4727 65.3126 14.042C65.8912 14.602 66.1806 15.414 66.1806 16.478V21H64.9206V16.66C64.9206 15.8947 64.7292 15.3113 64.3466 14.91C63.9639 14.4993 63.4412 14.294 62.7786 14.294C62.1066 14.294 61.5699 14.504 61.1686 14.924C60.7766 15.344 60.5806 15.9553 60.5806 16.758V21H59.3066V13.328H60.5806V14.42C60.8326 14.028 61.1732 13.7247 61.6026 13.51C62.0412 13.2953 62.5219 13.188 63.0446 13.188ZM73.2681 11.242V21H71.9941V11.242H73.2681ZM79.1774 13.188C80.1107 13.188 80.8667 13.4727 81.4454 14.042C82.024 14.602 82.3134 15.414 82.3134 16.478V21H81.0534V16.66C81.0534 15.8947 80.862 15.3113 80.4794 14.91C80.0967 14.4993 79.574 14.294 78.9114 14.294C78.2394 14.294 77.7027 14.504 77.3014 14.924C76.9094 15.344 76.7134 15.9553 76.7134 16.758V21H75.4394V13.328H76.7134V14.42C76.9654 14.028 77.306 13.7247 77.7354 13.51C78.174 13.2953 78.6547 13.188 79.1774 13.188ZM83.9185 17.136C83.9185 16.352 84.0771 15.666 84.3945 15.078C84.7118 14.4807 85.1458 14.0187 85.6965 13.692C86.2565 13.3653 86.8818 13.202 87.5725 13.202C88.1698 13.202 88.7251 13.342 89.2385 13.622C89.7518 13.8927 90.1438 14.252 90.4145 14.7V10.64H91.7025V21H90.4145V19.558C90.1625 20.0153 89.7891 20.3933 89.2945 20.692C88.7998 20.9813 88.2211 21.126 87.5585 21.126C86.8771 21.126 86.2565 20.958 85.6965 20.622C85.1458 20.286 84.7118 19.8147 84.3945 19.208C84.0771 18.6013 83.9185 17.9107 83.9185 17.136ZM90.4145 17.15C90.4145 16.5713 90.2978 16.0673 90.0645 15.638C89.8311 15.2087 89.5138 14.882 89.1125 14.658C88.7205 14.4247 88.2865 14.308 87.8105 14.308C87.3345 14.308 86.9005 14.42 86.5085 14.644C86.1165 14.868 85.8038 15.1947 85.5705 15.624C85.3371 16.0533 85.2205 16.5573 85.2205 17.136C85.2205 17.724 85.3371 18.2373 85.5705 18.676C85.8038 19.1053 86.1165 19.4367 86.5085 19.67C86.9005 19.894 87.3345 20.006 87.8105 20.006C88.2865 20.006 88.7205 19.894 89.1125 19.67C89.5138 19.4367 89.8311 19.1053 90.0645 18.676C90.2978 18.2373 90.4145 17.7287 90.4145 17.15ZM97.2014 21.126C96.4827 21.126 95.8294 20.9627 95.2414 20.636C94.6627 20.3093 94.2054 19.8473 93.8694 19.25C93.5427 18.6433 93.3794 17.9433 93.3794 17.15C93.3794 16.366 93.5474 15.6753 93.8834 15.078C94.2287 14.4713 94.6954 14.0093 95.2834 13.692C95.8714 13.3653 96.5294 13.202 97.2574 13.202C97.9854 13.202 98.6434 13.3653 99.2314 13.692C99.8194 14.0093 100.281 14.4667 100.617 15.064C100.963 15.6613 101.135 16.3567 101.135 17.15C101.135 17.9433 100.958 18.6433 100.603 19.25C100.258 19.8473 99.7867 20.3093 99.1894 20.636C98.5921 20.9627 97.9294 21.126 97.2014 21.126ZM97.2014 20.006C97.6587 20.006 98.0881 19.8987 98.4894 19.684C98.8907 19.4693 99.2127 19.1473 99.4554 18.718C99.7074 18.2887 99.8334 17.766 99.8334 17.15C99.8334 16.534 99.7121 16.0113 99.4694 15.582C99.2267 15.1527 98.9094 14.8353 98.5174 14.63C98.1254 14.4153 97.7007 14.308 97.2434 14.308C96.7767 14.308 96.3474 14.4153 95.9554 14.63C95.5727 14.8353 95.2647 15.1527 95.0314 15.582C94.7981 16.0113 94.6814 16.534 94.6814 17.15C94.6814 17.7753 94.7934 18.3027 95.0174 18.732C95.2507 19.1613 95.5587 19.4833 95.9414 19.698C96.3241 19.9033 96.7441 20.006 97.2014 20.006Z" fill="white" fill-opacity="0.85"/>
</svg>
