<svg width="288" height="100" viewBox="0 0 288 100" fill="none" xmlns="http://www.w3.org/2000/svg">
<g filter="url(#filter0_d_1_49)">
<rect x="30" y="15" width="227.826" height="40" fill="#2A9D8F"/>
<path d="M59.688 31.032V34.76H63.752V35.96H59.688V39.8H64.232V41H58.232V29.832H64.232V31.032H59.688ZM71.3311 41L67.8911 37.128V41H66.4351V29.16H67.8911V36.12L71.2671 32.232H73.2991L69.1711 36.6L73.3151 41H71.3311ZM77.7735 41.144C77.1015 41.144 76.4988 41.032 75.9655 40.808C75.4322 40.5733 75.0108 40.2533 74.7015 39.848C74.3922 39.432 74.2215 38.9573 74.1895 38.424H75.6935C75.7362 38.8613 75.9388 39.2187 76.3015 39.496C76.6748 39.7733 77.1602 39.912 77.7575 39.912C78.3122 39.912 78.7495 39.7893 79.0695 39.544C79.3895 39.2987 79.5495 38.9893 79.5495 38.616C79.5495 38.232 79.3788 37.9493 79.0375 37.768C78.6962 37.576 78.1682 37.3893 77.4535 37.208C76.8028 37.0373 76.2695 36.8667 75.8535 36.696C75.4482 36.5147 75.0962 36.2533 74.7975 35.912C74.5095 35.56 74.3655 35.1013 74.3655 34.536C74.3655 34.088 74.4988 33.6773 74.7655 33.304C75.0322 32.9307 75.4108 32.6373 75.9015 32.424C76.3922 32.2 76.9522 32.088 77.5815 32.088C78.5522 32.088 79.3362 32.3333 79.9335 32.824C80.5308 33.3147 80.8508 33.9867 80.8935 34.84H79.4375C79.4055 34.3813 79.2188 34.0133 78.8775 33.736C78.5468 33.4587 78.0988 33.32 77.5335 33.32C77.0108 33.32 76.5948 33.432 76.2855 33.656C75.9762 33.88 75.8215 34.1733 75.8215 34.536C75.8215 34.824 75.9122 35.064 76.0935 35.256C76.2855 35.4373 76.5202 35.5867 76.7975 35.704C77.0855 35.8107 77.4802 35.9333 77.9815 36.072C78.6108 36.2427 79.1228 36.4133 79.5175 36.584C79.9122 36.744 80.2482 36.9893 80.5255 37.32C80.8135 37.6507 80.9628 38.0827 80.9735 38.616C80.9735 39.096 80.8402 39.528 80.5735 39.912C80.3068 40.296 79.9282 40.6 79.4375 40.824C78.9575 41.0373 78.4028 41.144 77.7735 41.144ZM84.4849 33.848C84.7729 33.3467 85.1995 32.9307 85.7649 32.6C86.3409 32.2587 87.0075 32.088 87.7649 32.088C88.5435 32.088 89.2475 32.2747 89.8769 32.648C90.5169 33.0213 91.0182 33.5493 91.3809 34.232C91.7435 34.904 91.9249 35.688 91.9249 36.584C91.9249 37.4693 91.7435 38.2587 91.3809 38.952C91.0182 39.6453 90.5169 40.184 89.8769 40.568C89.2475 40.952 88.5435 41.144 87.7649 41.144C87.0182 41.144 86.3569 40.9787 85.7809 40.648C85.2155 40.3067 84.7835 39.8853 84.4849 39.384V45.16H83.0289V32.232H84.4849V33.848ZM90.4369 36.584C90.4369 35.9227 90.3035 35.3467 90.0369 34.856C89.7702 34.3653 89.4075 33.992 88.9489 33.736C88.5009 33.48 88.0049 33.352 87.4609 33.352C86.9275 33.352 86.4315 33.4853 85.9729 33.752C85.5249 34.008 85.1622 34.3867 84.8849 34.888C84.6182 35.3787 84.4849 35.9493 84.4849 36.6C84.4849 37.2613 84.6182 37.8427 84.8849 38.344C85.1622 38.8347 85.5249 39.2133 85.9729 39.48C86.4315 39.736 86.9275 39.864 87.4609 39.864C88.0049 39.864 88.5009 39.736 88.9489 39.48C89.4075 39.2133 89.7702 38.8347 90.0369 38.344C90.3035 37.8427 90.4369 37.256 90.4369 36.584ZM95.2974 29.16V41H93.8414V29.16H95.2974ZM101.603 41.144C100.782 41.144 100.035 40.9573 99.3629 40.584C98.7015 40.2107 98.1789 39.6827 97.7949 39C97.4215 38.3067 97.2349 37.5067 97.2349 36.6C97.2349 35.704 97.4269 34.9147 97.8109 34.232C98.2055 33.5387 98.7389 33.0107 99.4109 32.648C100.083 32.2747 100.835 32.088 101.667 32.088C102.499 32.088 103.251 32.2747 103.923 32.648C104.595 33.0107 105.123 33.5333 105.507 34.216C105.902 34.8987 106.099 35.6933 106.099 36.6C106.099 37.5067 105.896 38.3067 105.491 39C105.096 39.6827 104.558 40.2107 103.875 40.584C103.192 40.9573 102.435 41.144 101.603 41.144ZM101.603 39.864C102.126 39.864 102.616 39.7413 103.075 39.496C103.534 39.2507 103.902 38.8827 104.179 38.392C104.467 37.9013 104.611 37.304 104.611 36.6C104.611 35.896 104.472 35.2987 104.195 34.808C103.918 34.3173 103.555 33.9547 103.107 33.72C102.659 33.4747 102.174 33.352 101.651 33.352C101.118 33.352 100.627 33.4747 100.179 33.72C99.7415 33.9547 99.3895 34.3173 99.1229 34.808C98.8562 35.2987 98.7229 35.896 98.7229 36.6C98.7229 37.3147 98.8509 37.9173 99.1069 38.408C99.3735 38.8987 99.7255 39.2667 100.163 39.512C100.6 39.7467 101.08 39.864 101.603 39.864ZM109.469 33.656C109.725 33.1547 110.088 32.7653 110.557 32.488C111.037 32.2107 111.619 32.072 112.301 32.072V33.576H111.917C110.285 33.576 109.469 34.4613 109.469 36.232V41H108.013V32.232H109.469V33.656ZM113.438 36.584C113.438 35.688 113.619 34.904 113.982 34.232C114.345 33.5493 114.841 33.0213 115.47 32.648C116.11 32.2747 116.819 32.088 117.598 32.088C118.366 32.088 119.033 32.2533 119.598 32.584C120.163 32.9147 120.585 33.3307 120.862 33.832V32.232H122.334V41H120.862V39.368C120.574 39.88 120.142 40.3067 119.566 40.648C119.001 40.9787 118.339 41.144 117.582 41.144C116.803 41.144 116.099 40.952 115.47 40.568C114.841 40.184 114.345 39.6453 113.982 38.952C113.619 38.2587 113.438 37.4693 113.438 36.584ZM120.862 36.6C120.862 35.9387 120.729 35.3627 120.462 34.872C120.195 34.3813 119.833 34.008 119.374 33.752C118.926 33.4853 118.43 33.352 117.886 33.352C117.342 33.352 116.846 33.48 116.398 33.736C115.95 33.992 115.593 34.3653 115.326 34.856C115.059 35.3467 114.926 35.9227 114.926 36.584C114.926 37.256 115.059 37.8427 115.326 38.344C115.593 38.8347 115.95 39.2133 116.398 39.48C116.846 39.736 117.342 39.864 117.886 39.864C118.43 39.864 118.926 39.736 119.374 39.48C119.833 39.2133 120.195 38.8347 120.462 38.344C120.729 37.8427 120.862 37.2613 120.862 36.6ZM127.899 41.144C127.227 41.144 126.624 41.032 126.091 40.808C125.557 40.5733 125.136 40.2533 124.827 39.848C124.517 39.432 124.347 38.9573 124.315 38.424H125.819C125.861 38.8613 126.064 39.2187 126.427 39.496C126.8 39.7733 127.285 39.912 127.883 39.912C128.437 39.912 128.875 39.7893 129.195 39.544C129.515 39.2987 129.675 38.9893 129.675 38.616C129.675 38.232 129.504 37.9493 129.163 37.768C128.821 37.576 128.293 37.3893 127.579 37.208C126.928 37.0373 126.395 36.8667 125.979 36.696C125.573 36.5147 125.221 36.2533 124.923 35.912C124.635 35.56 124.491 35.1013 124.491 34.536C124.491 34.088 124.624 33.6773 124.891 33.304C125.157 32.9307 125.536 32.6373 126.027 32.424C126.517 32.2 127.077 32.088 127.707 32.088C128.677 32.088 129.461 32.3333 130.059 32.824C130.656 33.3147 130.976 33.9867 131.019 34.84H129.563C129.531 34.3813 129.344 34.0133 129.003 33.736C128.672 33.4587 128.224 33.32 127.659 33.32C127.136 33.32 126.72 33.432 126.411 33.656C126.101 33.88 125.947 34.1733 125.947 34.536C125.947 34.824 126.037 35.064 126.219 35.256C126.411 35.4373 126.645 35.5867 126.923 35.704C127.211 35.8107 127.605 35.9333 128.107 36.072C128.736 36.2427 129.248 36.4133 129.643 36.584C130.037 36.744 130.373 36.9893 130.651 37.32C130.939 37.6507 131.088 38.0827 131.099 38.616C131.099 39.096 130.965 39.528 130.699 39.912C130.432 40.296 130.053 40.6 129.563 40.824C129.083 41.0373 128.528 41.144 127.899 41.144ZM133.906 30.808C133.629 30.808 133.394 30.712 133.202 30.52C133.01 30.328 132.914 30.0933 132.914 29.816C132.914 29.5387 133.01 29.304 133.202 29.112C133.394 28.92 133.629 28.824 133.906 28.824C134.173 28.824 134.397 28.92 134.578 29.112C134.77 29.304 134.866 29.5387 134.866 29.816C134.866 30.0933 134.77 30.328 134.578 30.52C134.397 30.712 134.173 30.808 133.906 30.808ZM134.61 32.232V41H133.154V32.232H134.61ZM146.941 35.256C147.346 35.32 147.714 35.4853 148.045 35.752C148.386 36.0187 148.653 36.3493 148.845 36.744C149.048 37.1387 149.149 37.56 149.149 38.008C149.149 38.5733 149.005 39.0853 148.717 39.544C148.429 39.992 148.008 40.3493 147.453 40.616C146.909 40.872 146.264 41 145.517 41H141.357V29.848H145.357C146.114 29.848 146.76 29.976 147.293 30.232C147.826 30.4773 148.226 30.8133 148.493 31.24C148.76 31.6667 148.893 32.1467 148.893 32.68C148.893 33.3413 148.712 33.8907 148.349 34.328C147.997 34.7547 147.528 35.064 146.941 35.256ZM142.813 34.664H145.261C145.944 34.664 146.472 34.504 146.845 34.184C147.218 33.864 147.405 33.4213 147.405 32.856C147.405 32.2907 147.218 31.848 146.845 31.528C146.472 31.208 145.933 31.048 145.229 31.048H142.813V34.664ZM145.389 39.8C146.114 39.8 146.68 39.6293 147.085 39.288C147.49 38.9467 147.693 38.472 147.693 37.864C147.693 37.2453 147.48 36.76 147.053 36.408C146.626 36.0453 146.056 35.864 145.341 35.864H142.813V39.8H145.389ZM159.17 36.28C159.17 36.5573 159.154 36.8507 159.122 37.16H152.114C152.167 38.024 152.46 38.7013 152.994 39.192C153.538 39.672 154.194 39.912 154.962 39.912C155.591 39.912 156.114 39.768 156.53 39.48C156.956 39.1813 157.255 38.7867 157.426 38.296H158.994C158.759 39.1387 158.29 39.8267 157.586 40.36C156.882 40.8827 156.007 41.144 154.962 41.144C154.13 41.144 153.383 40.9573 152.722 40.584C152.071 40.2107 151.559 39.6827 151.186 39C150.812 38.3067 150.626 37.5067 150.626 36.6C150.626 35.6933 150.807 34.8987 151.17 34.216C151.532 33.5333 152.039 33.0107 152.69 32.648C153.351 32.2747 154.108 32.088 154.962 32.088C155.794 32.088 156.53 32.2693 157.17 32.632C157.81 32.9947 158.3 33.496 158.642 34.136C158.994 34.7653 159.17 35.48 159.17 36.28ZM157.666 35.976C157.666 35.4213 157.543 34.9467 157.298 34.552C157.052 34.1467 156.716 33.8427 156.29 33.64C155.874 33.4267 155.41 33.32 154.898 33.32C154.162 33.32 153.532 33.5547 153.01 34.024C152.498 34.4933 152.204 35.144 152.13 35.976H157.666ZM162.547 33.656C162.803 33.1547 163.166 32.7653 163.635 32.488C164.115 32.2107 164.697 32.072 165.379 32.072V33.576H164.995C163.363 33.576 162.547 34.4613 162.547 36.232V41H161.091V32.232H162.547V33.656ZM168.836 33.432V38.6C168.836 39.0267 168.927 39.3307 169.108 39.512C169.289 39.6827 169.604 39.768 170.052 39.768H171.124V41H169.812C169.001 41 168.393 40.8133 167.988 40.44C167.583 40.0667 167.38 39.4533 167.38 38.6V33.432H166.244V32.232H167.38V30.024H168.836V32.232H171.124V33.432H168.836ZM180.664 32.232V41H179.208V39.704C178.931 40.152 178.542 40.504 178.04 40.76C177.55 41.0053 177.006 41.128 176.408 41.128C175.726 41.128 175.112 40.9893 174.568 40.712C174.024 40.424 173.592 39.9973 173.272 39.432C172.963 38.8667 172.808 38.1787 172.808 37.368V32.232H174.248V37.176C174.248 38.04 174.467 38.7067 174.904 39.176C175.342 39.6347 175.939 39.864 176.696 39.864C177.475 39.864 178.088 39.624 178.536 39.144C178.984 38.664 179.208 37.9653 179.208 37.048V32.232H180.664ZM193.667 32.072C194.349 32.072 194.957 32.216 195.491 32.504C196.024 32.7813 196.445 33.2027 196.755 33.768C197.064 34.3333 197.219 35.0213 197.219 35.832V41H195.779V36.04C195.779 35.1653 195.56 34.4987 195.123 34.04C194.696 33.5707 194.115 33.336 193.379 33.336C192.621 33.336 192.019 33.5813 191.571 34.072C191.123 34.552 190.899 35.2507 190.899 36.168V41H189.459V36.04C189.459 35.1653 189.24 34.4987 188.803 34.04C188.376 33.5707 187.795 33.336 187.059 33.336C186.301 33.336 185.699 33.5813 185.251 34.072C184.803 34.552 184.579 35.2507 184.579 36.168V41H183.123V32.232H184.579V33.496C184.867 33.0373 185.251 32.6853 185.731 32.44C186.221 32.1947 186.76 32.072 187.347 32.072C188.083 32.072 188.733 32.2373 189.299 32.568C189.864 32.8987 190.285 33.384 190.563 34.024C190.808 33.4053 191.213 32.9253 191.779 32.584C192.344 32.2427 192.973 32.072 193.667 32.072ZM201.063 33.864C201.362 33.3413 201.799 32.9147 202.375 32.584C202.951 32.2533 203.607 32.088 204.343 32.088C205.132 32.088 205.842 32.2747 206.471 32.648C207.1 33.0213 207.596 33.5493 207.959 34.232C208.322 34.904 208.503 35.688 208.503 36.584C208.503 37.4693 208.322 38.2587 207.959 38.952C207.596 39.6453 207.095 40.184 206.455 40.568C205.826 40.952 205.122 41.144 204.343 41.144C203.586 41.144 202.919 40.9787 202.343 40.648C201.778 40.3173 201.351 39.896 201.063 39.384V41H199.607V29.16H201.063V33.864ZM207.015 36.584C207.015 35.9227 206.882 35.3467 206.615 34.856C206.348 34.3653 205.986 33.992 205.527 33.736C205.079 33.48 204.583 33.352 204.039 33.352C203.506 33.352 203.01 33.4853 202.551 33.752C202.103 34.008 201.74 34.3867 201.463 34.888C201.196 35.3787 201.063 35.9493 201.063 36.6C201.063 37.2613 201.196 37.8427 201.463 38.344C201.74 38.8347 202.103 39.2133 202.551 39.48C203.01 39.736 203.506 39.864 204.039 39.864C204.583 39.864 205.079 39.736 205.527 39.48C205.986 39.2133 206.348 38.8347 206.615 38.344C206.882 37.8427 207.015 37.256 207.015 36.584ZM218.196 32.232V41H216.74V39.704C216.462 40.152 216.073 40.504 215.572 40.76C215.081 41.0053 214.537 41.128 213.94 41.128C213.257 41.128 212.644 40.9893 212.1 40.712C211.556 40.424 211.124 39.9973 210.804 39.432C210.494 38.8667 210.34 38.1787 210.34 37.368V32.232H211.78V37.176C211.78 38.04 211.998 38.7067 212.436 39.176C212.873 39.6347 213.47 39.864 214.228 39.864C215.006 39.864 215.62 39.624 216.068 39.144C216.516 38.664 216.74 37.9653 216.74 37.048V32.232H218.196ZM225.006 32.072C225.667 32.072 226.265 32.216 226.798 32.504C227.331 32.7813 227.747 33.2027 228.046 33.768C228.355 34.3333 228.51 35.0213 228.51 35.832V41H227.07V36.04C227.07 35.1653 226.851 34.4987 226.414 34.04C225.977 33.5707 225.379 33.336 224.622 33.336C223.854 33.336 223.241 33.576 222.782 34.056C222.334 34.536 222.11 35.2347 222.11 36.152V41H220.654V29.16H222.11V33.48C222.398 33.032 222.793 32.6853 223.294 32.44C223.806 32.1947 224.377 32.072 225.006 32.072Z" fill="white"/>
</g>
<defs>
<filter id="filter0_d_1_49" x="0" y="0" width="287.826" height="100" filterUnits="userSpaceOnUse" color-interpolation-filters="sRGB">
<feFlood flood-opacity="0" result="BackgroundImageFix"/>
<feColorMatrix in="SourceAlpha" type="matrix" values="0 0 0 0 0 0 0 0 0 0 0 0 0 0 0 0 0 0 127 0" result="hardAlpha"/>
<feOffset dy="15"/>
<feGaussianBlur stdDeviation="15"/>
<feComposite in2="hardAlpha" operator="out"/>
<feColorMatrix type="matrix" values="0 0 0 0 0.470588 0 0 0 0 0.792157 0 0 0 0 0.576471 0 0 0 0.3 0"/>
<feBlend mode="normal" in2="BackgroundImageFix" result="effect1_dropShadow_1_49"/>
<feBlend mode="normal" in="SourceGraphic" in2="effect1_dropShadow_1_49" result="shape"/>
</filter>
</defs>
</svg>
