<svg width="46" height="46" viewBox="0 0 46 46" fill="none" xmlns="http://www.w3.org/2000/svg">
<ellipse cx="22.9981" cy="23" rx="22.9981" ry="23" fill="#2A9D8F"/>
<g clip-path="url(#clip0_1_62)">
<path d="M30.4327 16.9365C30.5598 16.233 30.5216 15.5 30.3224 14.822C30.1231 14.144 29.771 13.5487 29.3067 13.1049C28.8424 12.661 28.2848 12.3868 27.6984 12.3137C27.1119 12.2407 26.5205 12.3719 25.9925 12.6921C25.7955 11.9124 25.3994 11.2304 24.8621 10.7459C24.3248 10.2614 23.6746 10 23.0069 10C22.3392 10 21.689 10.2614 21.1517 10.7459C20.6144 11.2304 20.2182 11.9124 20.0212 12.6921C19.4932 12.3719 18.9018 12.2407 18.3154 12.3137C17.7289 12.3868 17.1714 12.661 16.707 13.1049C16.2427 13.5487 15.8906 14.144 15.6914 14.822C15.4921 15.5 15.4539 16.233 15.5811 16.9365C14.8127 17.1051 14.1239 17.6191 13.6501 18.3773C13.1763 19.1355 12.9519 20.083 13.0211 21.0332C13.0902 21.9834 13.448 22.8676 14.0238 23.5117C14.5997 24.1558 15.352 24.5132 16.1326 24.5134H16.1951C16.3608 25.5059 16.8424 26.3773 17.5339 26.9359C18.2253 27.4944 19.0701 27.6945 19.8822 27.4919C20.6943 27.2894 21.4074 26.7008 21.8645 25.8558C22.3215 25.0108 22.4852 23.9785 22.3194 22.986H23.0694C22.9134 23.9807 23.0871 25.0103 23.5523 25.8484C24.0175 26.6865 24.7361 27.2645 25.55 27.4552C26.3639 27.6458 27.2064 27.4335 27.8922 26.865C28.5781 26.2965 29.051 25.4183 29.207 24.4237C29.6137 24.5363 30.0348 24.5484 30.4453 24.459C30.8559 24.3697 31.2477 24.1809 31.5976 23.9036C31.9475 23.6264 32.2484 23.2663 32.4827 22.8447C32.717 22.4231 32.8798 21.9485 32.9616 21.4487C33.0434 20.949 33.0425 20.4343 32.9591 19.935C32.8756 19.4357 32.7111 18.9619 32.4754 18.5415C32.2398 18.121 31.9376 17.7625 31.5868 17.487C31.2359 17.2115 30.8435 17.0247 30.4327 16.9374V16.9365Z" fill="white"/>
<path d="M20.97 35.5249H25.0615L24.477 20.4972H21.5545L20.97 35.5249Z" fill="white"/>
</g>
<defs>
<clipPath id="clip0_1_62">
<rect width="20.0135" height="25.5249" fill="white" transform="translate(13.0088 10)"/>
</clipPath>
</defs>
</svg>
